<svg xmlns="http://www.w3.org/2000/svg" width="166" height="32" viewBox="0 0 166 32">
    <g fill="none" fill-rule="evenodd">
        <path d="M-16-16h200v64H-16z"/>
        <path d="M0 0h32v32H0z"/>
        <path fill="#000" d="M25.395 9.87a.25.25 0 0 1-.005.033l-.14.673a.657.657 0 0 1-.77.513l-.53-.115a.646.646 0 0 1-.41-.29.677.677 0 0 1-.09-.501l.133-.644.004-.026c.08-.42-.018-.857-.27-1.2a1.453 1.453 0 0 0-1.051-.599c-.742-.067-1.42.487-1.582 1.267L17.71 23.336c-.516 2.492-2.692 4.302-5.175 4.302a5.206 5.206 0 0 1-1.577-.247c-2.496-.792-4.134-3.739-3.576-6.434l.11-.531a.261.261 0 0 1 .124-.174.307.307 0 0 1 .2-.041l5.88 1.282c.169.037.314.14.409.29.094.148.127.327.09.501l-.112.544a.662.662 0 0 1-.77.514l-4.225-.922c.095 1.689 1.348 3.083 3.02 3.301 1.792.24 3.446-1.058 3.826-2.895l2.943-14.207c.363-1.754 1.94-2.995 3.653-2.776a3.27 3.27 0 0 1 2.296 1.388c.535.76.742 1.72.569 2.638zM16 0C7.163 0 0 7.163 0 16s7.163 16 16 16 16-7.163 16-16S24.837 0 16 0zM112.642 12.667c-.778-.675-1.84-1.066-2.91-1.066-2.37 0-4.227 1.904-4.227 4.333 0 2.393 1.867 4.268 4.25 4.268 1.06 0 2.142-.377 2.895-1.008.219-.183.629-.166.808.038l1.74 1.804c.212.206.202.583-.024.804-1.496 1.414-3.415 2.16-5.553 2.16-4.544 0-8.24-3.58-8.24-7.979 0-4.422 3.696-8.021 8.24-8.021 2.21 0 3.914.638 5.525 2.067.127.11.2.258.206.414a.563.563 0 0 1-.178.42l-1.744 1.764a.575.575 0 0 1-.788.002zM129.722 8h2.537c.297 0 .558.274.558.586v14.828c0 .312-.261.586-.558.586h-2.538c-.307 0-.557-.263-.557-.586v-5.73h-5.793v5.73c0 .323-.25.586-.558.586h-2.538c-.296 0-.557-.274-.557-.586V8.586c0-.312.261-.586.557-.586h2.538c.307 0 .558.263.558.586v5.484h5.793V8.586c0-.323.25-.586.557-.586zm19.1 0h-9.305a.588.588 0 0 0-.587.586v14.828c0 .323.264.586.587.586h9.304a.588.588 0 0 0 .588-.586v-2.441a.587.587 0 0 0-.588-.586h-6.065v-2.704h4.964a.588.588 0 0 0 .587-.586v-2.441a.602.602 0 0 0-.587-.586h-4.964v-2.457h6.065a.588.588 0 0 0 .588-.586V8.586A.588.588 0 0 0 148.82 8zm7.287 0h9.303c.324 0 .588.263.588.586v2.441a.588.588 0 0 1-.588.586h-6.063v2.906h4.962c.313 0 .588.273.588.585v2.442a.602.602 0 0 1-.588.585h-4.962v5.283a.602.602 0 0 1-.588.586h-2.652a.588.588 0 0 1-.588-.586V8.586c0-.323.264-.586.588-.586zM46.803 14.941c-1.967-.842-2.769-1.69-2.769-2.929 0-.775.58-2.24 2.775-2.24.522 0 1.405.163 2.64.942l.064.04c.398.23.697.145.942-.245.038-.058.075-.12.112-.182l.023-.037c.04-.067.08-.134.122-.199.154-.25.146-.456.111-.583a.608.608 0 0 0-.28-.369C50.479 9.093 48.933 8 46.83 8c-3.426 0-4.67 2.413-4.67 4.034 0 2.718 1.733 3.715 3.827 4.654 2.292.983 3.619 1.838 3.619 3.3 0 1.277-1.157 2.24-2.69 2.24-1.505 0-2.807-.991-3.449-1.583l-.038-.035a.584.584 0 0 0-.384-.165c-.26 0-.453.22-.572.38a6.014 6.014 0 0 0-.168.217l-.03.04c-.041.055-.083.11-.133.173-.318.517-.029.776.152.938h.001c.317.302 2.028 1.807 4.577 1.807 2.655 0 4.734-1.792 4.734-4.078 0-2.747-2.176-3.881-4.803-4.98zM58.213 8h.757c.263 0 .495.274.495.586v14.828c0 .312-.232.586-.495.586h-.757c-.263 0-.495-.274-.495-.586V8.586c0-.312.232-.586.495-.586zM71.48 22.135h-3.081V9.845h3.081c3.448 0 5.95 2.58 5.95 6.134 0 3.567-2.502 6.156-5.95 6.156zM66.993 8h4.831c4.26 0 7.726 3.579 7.726 7.977 0 4.424-3.466 8.023-7.726 8.023h-4.831c-.294 0-.542-.268-.542-.586V8.586c0-.317.248-.586.542-.586zm20.105 0h8.48c.31 0 .562.263.562.586v.65a.576.576 0 0 1-.562.585H88.5v5.145h6.023c.3 0 .563.274.563.586v.65a.575.575 0 0 1-.563.585H88.5v5.392h7.078c.31 0 .562.263.562.585v.65a.575.575 0 0 1-.562.586h-8.48a.576.576 0 0 1-.563-.586V8.586c0-.323.253-.586.563-.586z"/>
        <path d="M40 8h128v16H40z"/>
    </g>
</svg>
